<?xml version="1.0" encoding="UTF-8" standalone="no"?>
<!-- Created with Inkscape (http://www.inkscape.org/) -->

<svg
   version="1.1"
   id="svg69"
   width="1080"
   height="1080"
   viewBox="0 0 1080 1080"
   sodipodi:docname="Aeternum logo.png"
   inkscape:version="1.1.2 (0a00cf5339, 2022-02-04)"
   xmlns:inkscape="http://www.inkscape.org/namespaces/inkscape"
   xmlns:sodipodi="http://sodipodi.sourceforge.net/DTD/sodipodi-0.dtd"
   xmlns="http://www.w3.org/2000/svg"
   xmlns:svg="http://www.w3.org/2000/svg">
  <defs
     id="defs73" />
  <sodipodi:namedview
     id="namedview71"
     pagecolor="#ffffff"
     bordercolor="#666666"
     borderopacity="1.0"
     inkscape:pageshadow="2"
     inkscape:pageopacity="0.0"
     inkscape:pagecheckerboard="0"
     showgrid="false"
     inkscape:zoom="0.70092593"
     inkscape:cx="136.96169"
     inkscape:cy="540"
     inkscape:window-width="2560"
     inkscape:window-height="966"
     inkscape:window-x="1080"
     inkscape:window-y="507"
     inkscape:window-maximized="1"
     inkscape:current-layer="g75" />
  <g
     inkscape:groupmode="layer"
     inkscape:label="Image"
     id="g75">
    <path
       style="fill:#000000"
       d="m 518.76944,989.9617 c -47.51619,-2.01963 -98.17062,-12.8734 -144.6643,-30.99734 -15.43881,-6.01828 -50.8089,-23.50935 -65.3025,-32.29311 C 259.74994,896.94316 219.46408,861.26905 184.38906,816.5 165.83932,792.82349 152.8567,772.12707 137.96974,742.5 125.70742,718.09633 119.10881,702.27579 111.65929,679.41925 107.33024,666.13689 100,639.00064 100,636.25701 100,635.28003 105.76776,635 125.89045,635 h 25.89045 l 2.21,8.25 c 10.9427,40.84945 31.33536,85.41277 55.25652,120.75 24.59277,36.32936 56.19279,69.37186 92.25258,96.46373 46.76846,35.13735 106.0575,61.07789 165.5,72.41068 46.03178,8.77602 99.68024,8.78136 146,0.0145 45.60261,-8.6311 95.01959,-27.5962 134.75846,-51.7172 C 833.87233,828.9017 898.04397,743.97715 925.01873,646.58606 L 928.22776,635 h 25.88612 C 974.23309,635 980,635.28004 980,636.25701 c 0,2.73995 -7.32804,29.87356 -11.65694,43.16224 -7.27946,22.34625 -12.69972,35.46227 -24.82867,60.08075 -38.66064,78.47064 -96.34771,141.1305 -172.31703,187.17125 -14.4936,8.78376 -49.86369,26.27483 -65.3025,32.29311 -44.11659,17.19732 -95.73688,28.65478 -137.39486,30.49567 -26.69399,1.17963 -32.42076,1.2374 -49.73056,0.50167 z M 538.08083,868.83128 C 537.56852,867.54908 511.71997,814.525 480.63961,751 l -56.50976,-115.5 57.93508,-0.25806 c 31.86429,-0.14193 84.00561,-0.14193 115.86961,0 L 655.86909,635.5 598.43233,753 c -31.59021,64.625 -57.88298,117.64908 -58.42839,117.83128 -0.5454,0.18221 -1.4108,-0.71779 -1.92311,-2 z M 47.537485,587.39463 c -1.033496,-1.0335 -1.365137,-2.36935 -0.930983,-3.75 2.292333,-7.28985 39.520295,-98.34959 41.089801,-100.50581 3.175292,-4.36229 10.030994,-7.36692 15.270497,-6.69256 5.65393,0.7277 11.26505,4.40668 13.29123,8.7145 C 121.58182,496.47957 156,583.15458 156,585.24262 c 0,1.39887 -0.7118,2.81655 -1.58179,3.15039 -2.91468,1.11847 -15.98626,0.64399 -17.71456,-0.64301 -0.92323,-0.6875 -9.2614,-20.04774 -18.52926,-43.02277 l -16.85066,-41.77276 -8.165284,20.77276 c -4.490906,11.42503 -8.163745,21.11027 -8.161865,21.52277 0.0019,0.4125 3.998319,0.75 8.880974,0.75 5.885518,0 9.225035,0.42129 9.908545,1.25 0.56704,0.6875 2.23129,4.25327 3.69833,7.92394 2.13423,5.34003 2.44655,7.08652 1.5626,8.73819 -1.47743,2.7606 -3.2215,3.06066 -19.440045,3.34463 L 75.713971,567.5 l -3.415287,9 c -1.878408,4.95 -4.338904,9.7875 -5.46777,10.75 -2.831719,2.4144 -16.918065,2.51999 -19.293429,0.14463 z M 533.75,587.9199 C 532.14199,586.98332 532,584.34684 532,555.42556 V 523.9505 l 2.5651,-0.97525 C 536.03094,522.41794 550.37729,522 568.04205,522 h 30.91184 l 1.55519,-2.37352 c 4.1394,-6.31751 2.33918,-18.59307 -3.02581,-20.63284 C 595.9567,498.41324 582.01244,498 563.95395,498 H 533.0381 l -0.56767,-2.26178 c -0.31221,-1.24397 -0.43329,-5.63147 -0.26905,-9.75 L 532.5,478.5 l 35.45277,-0.26302 c 38.91494,-0.2887 42.10862,0.0851 47.33213,5.53975 6.09671,6.36649 8.98184,19.57725 7.46146,34.16534 -1.39789,13.4129 -7.40828,22.00052 -16.74924,23.93128 l -3.0317,0.62665 11.99271,20.5 c 6.59599,11.275 12.00377,21.03036 12.01729,21.67857 0.0626,3.00386 -3.13316,4.32143 -10.48175,4.32143 -4.04991,0 -8.40527,-0.40201 -9.67857,-0.89336 -1.63371,-0.63043 -5.97104,-7.39985 -14.73665,-23 L 579.6569,543 H 565.82845 552 v 21.96482 c 0,20.69251 -0.11204,22.02478 -1.93426,23 -2.47415,1.32412 -14.01981,1.29234 -16.31574,-0.0449 z m 122,0 c -1.62936,-0.94901 -1.75,-4.43055 -1.75,-50.50171 0,-53.12792 0.10154,-54.27462 5.11687,-57.7875 C 660.90616,478.37742 663.84689,478 671.82251,478 H 682.2 l 3.17109,3.25 c 1.74409,1.7875 12.83659,20.49915 24.65,41.58144 L 731.5,561.16287 732,520.83144 c 0.275,-22.18229 0.86406,-40.89394 1.30902,-41.58144 0.54152,-0.8367 3.58832,-1.25 9.21481,-1.25 7.40629,0 8.53417,0.23986 9.4854,2.01724 0.74232,1.38705 0.98762,17.24155 0.78518,50.75 -0.28417,47.0381 -0.36568,48.85447 -2.34379,52.23276 -2.43326,4.15559 -6.62648,5.87335 -14.45062,5.9197 -8.03945,0.0476 -13.18327,-1.42159 -15.60886,-4.45833 -1.15988,-1.45211 -11.95988,-20.12594 -24,-41.49739 L 674.5,504.10679 674,545.5905 c -0.42683,35.41287 -0.71951,41.62239 -2,42.43129 -1.99771,1.262 -14.03797,1.1865 -16.25,-0.10189 z m 250,0 c -1.62973,-0.94923 -1.75,-4.45436 -1.75,-51.00171 0,-54.46804 0.1343,-55.87815 5.51673,-57.92455 3.60248,-1.36966 21.82084,-1.25258 24.92146,0.16015 3.20911,1.46217 3.91535,2.98824 18.59933,40.19024 6.69593,16.96421 12.51048,30.46421 12.92121,30 0.41073,-0.46422 6.712,-15.81238 14.00283,-34.10703 9.85653,-24.73271 13.90385,-33.77257 15.7821,-35.25 2.14984,-1.69107 4.06276,-1.987 12.84414,-1.987 5.675,0 11.376,0.48202 12.669,1.07116 5.3056,2.4174 5.2215,1.56362 5.5278,56.07279 0.3278,58.31304 1.0929,53.85605 -9.2452,53.85605 -11.2734,0 -10.5115,3.08709 -10.7954,-43.74175 l -0.244,-40.24176 -11.35302,28.24176 c -17.98465,44.73861 -16.75699,43.05274 -30.97902,42.54135 -7.83302,-0.28166 -8.49337,-0.48016 -11.02568,-3.31432 -1.66658,-1.86523 -7.64062,-15.2591 -15.66796,-35.12774 L 924.5,505.24452 924,545.7036 c -0.47685,38.58573 -0.58988,40.52477 -2.44113,41.87774 -2.26368,1.6544 -13.14946,1.88752 -15.80887,0.33856 z M 202.5,586.21346 c -6.66415,-2.21667 -12.6016,-8.25871 -15.53297,-15.80661 -1.98188,-5.10306 -2.35362,-8.22018 -2.73186,-22.90685 -0.42474,-16.49196 -0.37001,-17.0858 1.8314,-19.87118 4.30197,-5.44314 5.7478,-5.62882 43.82988,-5.62882 30.44911,0 35.16348,0.20279 36.53212,1.57143 1.78752,1.78751 2.23189,14.83414 0.59362,17.42857 -0.79686,1.26195 -5.83322,1.57935 -31.73469,2 l -30.7875,0.5 0.0188,5.5 c 0.0221,6.45144 1.90397,11.58808 4.86831,13.28822 1.47604,0.84655 10.40128,1.30216 29.61285,1.51163 24.0959,0.26274 27.65473,0.50302 28.75,1.94113 1.53457,2.01492 1.69878,17.55195 0.21482,20.32476 -0.98898,1.84792 -2.36154,1.93151 -30.75,1.87256 -24.92115,-0.0517 -30.52143,-0.33001 -34.71482,-1.72484 z m 132.12078,0.24068 C 334.27935,585.5644 334,565.30816 334,541.44028 V 498.04413 L 315.25,497.77207 296.5,497.5 l -0.29862,-7.48822 c -0.16424,-4.11853 -0.0432,-8.50603 0.26905,-9.75 L 297.0381,478 h 46.94577 c 45.39044,0 46.98006,0.0641 47.98095,1.93426 1.30871,2.44536 1.34611,12.11772 0.0599,15.50064 L 391.0495,498 h -18.51445 -18.51446 l -0.26029,44.75 -0.2603,44.75 -9.12922,0.28593 c -7.65969,0.2399 -9.22916,0.0255 -9.75,-1.33179 z M 438.5,586.21346 c -6.66415,-2.21667 -12.6016,-8.25871 -15.53297,-15.80661 -1.98188,-5.10306 -2.35362,-8.22018 -2.73186,-22.90685 -0.42474,-16.49196 -0.37001,-17.0858 1.8314,-19.87118 4.30197,-5.44314 5.7478,-5.62882 43.82988,-5.62882 30.44911,0 35.16348,0.20279 36.53212,1.57143 1.78752,1.78751 2.23189,14.83414 0.59362,17.42857 -0.79686,1.26195 -5.83322,1.57935 -31.73469,2 l -30.7875,0.5 0.0188,5.5 c 0.0221,6.45144 1.90397,11.58808 4.86831,13.28822 1.47604,0.84655 10.40128,1.30216 29.61285,1.51163 24.0959,0.26274 27.65473,0.50302 28.75,1.94113 1.53457,2.01492 1.69878,17.55195 0.21482,20.32476 -0.98898,1.84792 -2.36154,1.93151 -30.75,1.87256 -24.92115,-0.0517 -30.52143,-0.33001 -34.71482,-1.72484 z m 360.17014,0.19347 c -7.15065,-2.24152 -12.96138,-8.50981 -15.81537,-17.06072 -2.20384,-6.60298 -2.29732,-8.29657 -2.63125,-47.66982 -0.25793,-30.41185 -0.0443,-41.18739 0.83757,-42.25 C 781.91433,478.3983 784.59113,478 790.6472,478 c 8.09919,0 8.43748,0.0925 9.37755,2.5651 0.57067,1.50098 0.97525,18.10816 0.97525,40.03212 0,42.11903 0.16839,43.32171 6.43189,45.93877 5.50318,2.29937 37.82675,2.08103 42.56811,-0.28754 5.69449,-2.84472 5.88064,-4.32607 5.94356,-47.29845 0.0418,-28.58524 0.36663,-38.86019 1.25644,-39.75 0.73974,-0.73974 4.36996,-1.2 9.46482,-1.2 7.14772,0 8.40473,0.26144 9.3,1.93426 1.31173,2.45099 1.39035,66.3456 0.0955,77.60438 -1.68694,14.66787 -5.73147,22.29797 -14.35184,27.07503 L 856.5,587.5 830,587.71048 c -21.31906,0.16933 -27.44427,-0.0855 -31.32986,-1.30355 z M 185.2,496.8 c -0.73974,-0.73974 -1.2,-4.36996 -1.2,-9.46482 0,-7.14772 0.26144,-8.40473 1.93426,-9.3 1.23742,-0.66224 15.828,-1.03518 40.5,-1.03518 C 271.4139,477 269,476.43659 269,486.9349 c 0,3.2642 -0.43886,7.0892 -0.97525,8.5 L 267.0495,498 h -40.32475 c -30.03036,0 -40.63109,-0.30634 -41.52475,-1.2 z m 236,0 c -0.73974,-0.73974 -1.2,-4.36996 -1.2,-9.46482 0,-7.14772 0.26144,-8.40473 1.93426,-9.3 1.23742,-0.66224 15.828,-1.03518 40.5,-1.03518 C 507.4139,477 505,476.43659 505,486.9349 c 0,3.2642 -0.43886,7.0892 -0.97525,8.5 L 503.0495,498 H 462.72475 C 432.69439,498 422.09366,497.69366 421.2,496.8 Z M 100,443.73382 c 0,-5.99887 12.6382,-47.94646 20.70851,-68.73382 5.79351,-14.92281 24.32118,-52.53229 32.60376,-66.18265 C 218.25297,201.78988 320.83564,127.5163 441,100.52099 479.44824,91.883464 518.58744,88.45695 559.85876,90.115276 641.57588,93.398758 720.91518,119.30965 790,165.27557 845.06709,201.91472 891.25048,250.41392 926.68773,308.81735 934.97031,322.46771 953.49798,360.07719 959.29149,375 967.25387,395.50936 980,437.82082 980,443.74299 980,444.71993 974.23884,445 954.14305,445 H 928.2861 l -3.62985,-12.97963 C 902.29547,352.06281 854.77431,280.53444 788.82894,227.57453 733.62375,183.23992 661.61157,152.73617 590.5,143.56406 c -30.76326,-3.9679 -70.23674,-3.9679 -101,0 -74.6752,9.63175 -147.96901,41.74889 -206,90.26864 -61.08802,51.07572 -106.77294,121.72532 -128.15625,198.18767 L 151.7139,445 H 125.85695 C 105.66185,445 100,444.72275 100,443.73382 Z M 429.45194,433.75 C 449.60249,391.25409 539.20143,209.5 540,209.5 c 0.79857,0 90.39751,181.75409 110.54806,224.25 L 655.88254,445 H 540 424.11746 Z"
       id="path1164" />
  </g>
</svg>
